PathFileType	4	(X/Y/Z)	 s10c0001.trc
DataRate	CameraRate	NumFrames	NumMarkers	Units	OrigDataRate	OrigDataStartFrame	OrigNumFrames
200	200	4	49	mm	200	1251	2000
Frame#	Time	racr			lacr			c7			jug			rlel			rdr			llel			ldr			s2			lic			ric			lasi			rasi			rpsi			lpsi			rgt			lgt			rth1			rth2			rth3			rth4			rlfc			rmfc			rsh1			rsh2			rsh3			rsh4			rlmal			rmmal			rcal			rtoe			rmt5			rmt1			lth1			lth2			lth4			lth3			llfc			lmfc			llmal			lmmal			lcal			lmt1			lmt5			lsh1			lsh2			lsh3			lsh4			ltoe			
		X1	Y1	Z1	X2	Y2	Z2	X3	Y3	Z3	X4	Y4	Z4	X5	Y5	Z5	X6	Y6	Z6	X7	Y7	Z7	X8	Y8	Z8	X9	Y9	Z9	X10	Y10	Z10	X11	Y11	Z11	X12	Y12	Z12	X13	Y13	Z13	X14	Y14	Z14	X15	Y15	Z15	X16	Y16	Z16	X17	Y17	Z17	X18	Y18	Z18	X19	Y19	Z19	X20	Y20	Z20	X21	Y21	Z21	X22	Y22	Z22	X23	Y23	Z23	X24	Y24	Z24	X25	Y25	Z25	X26	Y26	Z26	X27	Y27	Z27	X28	Y28	Z28	X29	Y29	Z29	X30	Y30	Z30	X31	Y31	Z31	X32	Y32	Z32	X33	Y33	Z33	X34	Y34	Z34	X35	Y35	Z35	X36	Y36	Z36	X37	Y37	Z37	X38	Y38	Z38	X39	Y39	Z39	X40	Y40	Z40	X41	Y41	Z41	X42	Y42	Z42	X43	Y43	Z43	X44	Y44	Z44	X45	Y45	Z45	X46	Y46	Z46	X47	Y47	Z47	X48	Y48	Z48	X49	Y49	Z49	
1251	6.2550	461.877393	1378.272665	683.897539	482.653456	1386.776886	305.868157	430.649577	1426.607005	485.531058	562.706054	1375.315452	502.869491	454.418648	1123.149685	818.306690	475.842583	912.112618	932.725932	483.070433	1109.166868	194.327200	538.306143	907.300326	89.499097	387.285912	931.754779	496.367583	535.307870	994.056473	351.057276	538.603619	1001.453456	648.946223	598.133683	918.567520	383.487096	581.652935	907.543018	638.574188	405.807893	972.228161	558.817413	406.238769	983.962503	445.331746	464.679122	853.750296	684.102766	471.903805	854.538413	308.232300	484.380142	729.223289	714.874736	506.744565	643.295878	700.467783	484.681783	561.499420	691.682011	543.504219	646.045283	691.897991	493.833330	459.319742	674.960469	481.988509	441.217892	562.354256	447.867923	360.124445	716.812288	468.898629	273.225616	714.641331	444.250378	190.617065	716.660442	500.605553	274.189134	691.469962	454.113875	84.973757	709.938732	483.548614	95.894205	630.049473	420.345112	50.323383	655.048167	651.979610	85.039575	711.291513	566.118292	42.137218	755.908953	609.744793	46.708054	658.366990	494.177995	746.200928	282.720735	516.583183	663.819710	294.367781	550.588699	666.210095	304.947844	494.889257	577.851323	301.045777	496.071046	472.687951	315.042110	491.492687	454.732307	425.439256	450.773849	103.815879	283.975271	469.870099	101.019466	362.304340	411.050523	58.694725	327.052595	612.125990	47.386373	347.329678	579.616835	46.125509	245.191498	446.736285	364.299157	269.779919	472.844753	281.454098	275.797488	452.186220	194.263619	273.381873	501.753624	283.050239	301.620015	653.384848	92.354188	295.260228	
1252	6.2600	461.882875	1378.298538	683.896002	482.683513	1386.781436	305.881925	430.675675	1426.615718	485.524638	562.719901	1375.315008	502.874176	454.410546	1123.137871	818.326552	475.823966	912.136612	932.726706	483.100139	1109.170249	194.319369	538.288764	907.299601	89.506123	387.295375	931.769415	496.369112	535.302598	994.048438	351.033067	538.623770	1001.444582	648.927795	598.156858	918.568617	383.484987	581.673324	907.547490	638.573701	405.771410	972.252354	558.809975	406.239443	983.980795	445.327107	464.674665	853.754339	684.083789	471.925589	854.542071	308.217989	484.361885	729.223606	714.865520	506.768548	643.282098	700.451155	484.664334	561.506047	691.677600	543.525986	646.053047	691.890095	493.834913	459.328271	674.956467	481.985440	441.186841	562.354752	447.874029	360.143033	716.813745	468.893971	273.223849	714.635011	444.246580	190.614472	716.646325	500.621210	274.219461	691.481810	454.127355	84.992487	709.932810	483.558615	95.871045	630.063031	420.326500	50.324811	655.068472	652.012490	85.044471	711.292713	566.142673	42.143155	755.917977	609.743559	46.710934	658.362185	494.177353	746.208408	282.695015	516.596490	663.856462	294.337046	550.585738	666.190138	304.933426	494.896891	577.854112	301.044610	496.065629	472.677513	315.047018	491.521598	454.741933	425.445988	450.783198	103.824360	283.958150	469.890090	101.036355	362.286482	411.038888	58.703876	327.051841	612.123600	47.389855	347.341513	579.615192	46.108059	245.179757	446.742348	364.301568	269.771123	472.893742	281.453896	275.795669	452.174624	194.242412	273.375933	501.762808	283.041002	301.623163	653.387156	92.364136	295.254092	
1253	6.2650	461.897923	1378.297638	683.881914	482.673484	1386.776279	305.874723	430.710348	1426.620969	485.494567	562.729446	1375.304123	502.865049	454.459452	1123.171622	818.354782	475.807660	912.139718	932.739874	483.103952	1109.166205	194.313803	538.291937	907.298346	89.499133	387.298081	931.765730	496.327295	535.293055	994.057763	351.039059	538.630122	1001.436932	648.922916	598.144789	918.565955	383.476103	581.665244	907.561813	638.558261	405.802694	972.252299	558.789362	406.240595	983.987649	445.307429	464.683103	853.756413	684.073373	471.927002	854.551942	308.208759	484.356394	729.232188	714.870246	506.754626	643.301942	700.456866	484.656360	561.506660	691.673370	543.529767	646.050626	691.882492	493.834632	459.327819	674.949280	481.981068	441.168624	562.353996	447.890625	360.143358	716.811427	468.889481	273.232525	714.627936	444.252167	190.620156	716.645976	500.625319	274.205146	691.481227	454.104909	84.989072	709.942109	483.534293	95.884933	630.059039	420.306584	50.324058	655.044266	651.990070	85.041889	711.286957	566.161766	42.141139	755.900449	609.741188	46.713369	658.362207	494.197169	746.186667	282.691692	516.600999	663.845958	294.334033	550.614009	666.188746	304.934297	494.807124	577.821509	300.969325	496.071027	472.680668	315.037996	491.546294	454.750519	425.443905	450.781107	103.830710	283.947020	469.890327	101.039032	362.298587	411.043666	58.722856	327.050693	612.125392	47.399643	347.330292	579.615192	46.106207	245.183034	446.751062	364.292652	269.774566	472.836619	281.421674	275.788831	452.199336	194.242540	273.380859	501.789791	283.049280	301.630374	653.372331	92.358521	295.260812	
1254	6.2700	461.901610	1378.303413	683.874100	482.683657	1386.776527	305.867276	430.745174	1426.567021	485.435894	562.738578	1375.294908	502.854113	454.363708	1123.138735	818.282427	475.786218	912.142499	932.744585	483.121581	1109.160580	194.290660	538.298007	907.295978	89.491187	387.298324	931.780711	496.332342	535.302610	994.041087	351.027305	538.617144	1001.445756	648.916352	598.165679	918.570669	383.479082	581.676780	907.548416	638.555860	405.766206	972.276487	558.781927	406.246556	983.980557	445.297512	464.673009	853.765317	684.059078	471.939439	854.546850	308.194777	484.351489	729.239015	714.856999	506.731183	643.318279	700.439984	484.657646	561.505308	691.664107	543.523382	646.073376	691.865004	493.824648	459.333768	674.935974	481.975581	441.160337	562.351518	447.867560	360.154236	716.793221	468.893694	273.237274	714.629710	444.245605	190.617376	716.632385	500.599384	274.215360	691.488548	454.121268	85.000427	709.940191	483.545122	95.891499	630.061040	420.164530	50.535579	654.963485	651.989117	85.047452	711.290778	566.143823	42.159115	755.896935	609.746499	46.708939	658.357480	494.206767	746.190113	282.704212	516.595513	663.839638	294.321732	550.637367	666.192426	304.918257	494.914935	577.844591	301.030819	496.084367	472.694652	315.042598	491.541100	454.777994	425.433574	450.802575	103.830196	283.952638	469.887502	101.058343	362.289896	411.033188	58.722909	327.036324	612.133086	47.396701	347.328648	579.620868	46.118847	245.202159	446.755436	364.300575	269.780572	472.859746	281.416532	275.783532	452.201802	194.229421	273.382580	501.793495	283.060972	301.637071	653.371904	92.361147	295.259091	
